solid 6Ring_LG_OuterSolid

facet normal 0.000000e+00 -1.000000e+00 0.000000e+00
	outer loop
		vertex 1.345000e+02 0.000000e+00 -1.450000e+01
		vertex 1.345000e+02 0.000000e+00 1.450000e+01
		vertex -1.345000e+02 0.000000e+00 1.450000e+01
	endloop
endfacet

facet normal 0.000000e+00 -1.000000e+00 0.000000e+00
	outer loop
		vertex -1.345000e+02 0.000000e+00 1.450000e+01
		vertex -1.345000e+02 0.000000e+00 -1.450000e+01
		vertex 1.345000e+02 0.000000e+00 -1.450000e+01
	endloop
endfacet

facet normal 0.000000e+00 -3.420201e-01 -9.396926e-01
	outer loop
		vertex 1.345000e+02 0.000000e+00 -1.450000e+01
		vertex -1.345000e+02 0.000000e+00 -1.450000e+01
		vertex -1.345000e+02 8.300000e+01 -4.470953e+01
	endloop
endfacet

facet normal 0.000000e+00 -3.420201e-01 -9.396926e-01
	outer loop
		vertex -1.345000e+02 8.300000e+01 -4.470953e+01
		vertex 1.345000e+02 8.300000e+01 -4.470953e+01
		vertex 1.345000e+02 0.000000e+00 -1.450000e+01
	endloop
endfacet

facet normal 1.000000e+00 0.000000e+00 0.000000e+00
	outer loop
		vertex 1.345000e+02 0.000000e+00 1.450000e+01
		vertex 1.345000e+02 0.000000e+00 -1.450000e+01
		vertex 1.345000e+02 8.300000e+01 -4.470953e+01
	endloop
endfacet

facet normal 1.000000e+00 0.000000e+00 0.000000e+00
	outer loop
		vertex 1.345000e+02 8.300000e+01 -4.470953e+01
		vertex 1.345000e+02 8.300000e+01 3.987565e+01
		vertex 1.345000e+02 0.000000e+00 1.450000e+01
	endloop
endfacet

facet normal 0.000000e+00 -2.923717e-01 9.563048e-01
	outer loop
		vertex 1.345000e+02 0.000000e+00 1.450000e+01
		vertex 1.345000e+02 8.300000e+01 3.987565e+01
		vertex -1.345000e+02 8.300000e+01 3.987565e+01
	endloop
endfacet

facet normal 0.000000e+00 -2.923717e-01 9.563048e-01
	outer loop
		vertex -1.345000e+02 8.300000e+01 3.987565e+01
		vertex -1.345000e+02 0.000000e+00 1.450000e+01
		vertex 1.345000e+02 0.000000e+00 1.450000e+01
	endloop
endfacet

facet normal -1.000000e+00 0.000000e+00 0.000000e+00
	outer loop
		vertex -1.345000e+02 0.000000e+00 -1.450000e+01
		vertex -1.345000e+02 0.000000e+00 1.450000e+01
		vertex -1.345000e+02 8.300000e+01 3.987565e+01
	endloop
endfacet

facet normal -1.000000e+00 0.000000e+00 0.000000e+00
	outer loop
		vertex -1.345000e+02 8.300000e+01 3.987565e+01
		vertex -1.345000e+02 8.300000e+01 -4.470953e+01
		vertex -1.345000e+02 0.000000e+00 -1.450000e+01
	endloop
endfacet

facet normal 0.000000e+00 0.000000e+00 -1.000000e+00
	outer loop
		vertex 1.345000e+02 8.300000e+01 -4.470953e+01
		vertex -1.345000e+02 8.300000e+01 -4.470953e+01
		vertex -1.345000e+02 1.730000e+02 -4.470953e+01
	endloop
endfacet

facet normal 0.000000e+00 0.000000e+00 -1.000000e+00
	outer loop
		vertex -1.345000e+02 1.730000e+02 -4.470953e+01
		vertex 1.345000e+02 1.730000e+02 -4.470953e+01
		vertex 1.345000e+02 8.300000e+01 -4.470953e+01
	endloop
endfacet

facet normal 1.000000e+00 0.000000e+00 0.000000e+00
	outer loop
		vertex 1.345000e+02 8.300000e+01 -4.470953e+01
		vertex 1.345000e+02 1.730000e+02 -4.470953e+01
		vertex 1.345000e+02 1.730000e+02 3.987565e+01
	endloop
endfacet

facet normal 1.000000e+00 0.000000e+00 0.000000e+00
	outer loop
		vertex 1.345000e+02 1.730000e+02 3.987565e+01
		vertex 1.345000e+02 8.300000e+01 3.987565e+01
		vertex 1.345000e+02 8.300000e+01 -4.470953e+01
	endloop
endfacet

facet normal 0.000000e+00 0.000000e+00 1.000000e+00
	outer loop
		vertex -1.345000e+02 8.300000e+01 3.987565e+01
		vertex 1.345000e+02 8.300000e+01 3.987565e+01
		vertex 1.345000e+02 1.730000e+02 3.987565e+01
	endloop
endfacet

facet normal 0.000000e+00 0.000000e+00 1.000000e+00
	outer loop
		vertex 1.345000e+02 1.730000e+02 3.987565e+01
		vertex -1.345000e+02 1.730000e+02 3.987565e+01
		vertex -1.345000e+02 8.300000e+01 3.987565e+01
	endloop
endfacet

facet normal -1.000000e+00 0.000000e+00 0.000000e+00
	outer loop
		vertex -1.345000e+02 8.300000e+01 3.987565e+01
		vertex -1.345000e+02 1.730000e+02 3.987565e+01
		vertex -1.345000e+02 1.730000e+02 -4.470953e+01
	endloop
endfacet

facet normal -1.000000e+00 0.000000e+00 0.000000e+00
	outer loop
		vertex -1.345000e+02 1.730000e+02 -4.470953e+01
		vertex -1.345000e+02 8.300000e+01 -4.470953e+01
		vertex -1.345000e+02 8.300000e+01 3.987565e+01
	endloop
endfacet

facet normal 0.000000e+00 1.082296e-01 -9.941259e-01
	outer loop
		vertex 1.345000e+02 1.730000e+02 -4.470953e+01
		vertex -1.345000e+02 1.730000e+02 -4.470953e+01
		vertex -3.600000e+01 2.530000e+02 -3.600000e+01
	endloop
endfacet

facet normal 0.000000e+00 1.082296e-01 -9.941259e-01
	outer loop
		vertex -3.600000e+01 2.530000e+02 -3.600000e+01
		vertex 3.600000e+01 2.530000e+02 -3.600000e+01
		vertex 1.345000e+02 1.730000e+02 -4.470953e+01
	endloop
endfacet

facet normal 0.000000e+00 4.838883e-02 9.988286e-01
	outer loop
		vertex -1.345000e+02 1.730000e+02 3.987565e+01
		vertex 1.345000e+02 1.730000e+02 3.987565e+01
		vertex 3.600000e+01 2.530000e+02 3.600000e+01
	endloop
endfacet

facet normal 0.000000e+00 4.838883e-02 9.988286e-01
	outer loop
		vertex 3.600000e+01 2.530000e+02 3.600000e+01
		vertex -3.600000e+01 2.530000e+02 3.600000e+01
		vertex -1.345000e+02 1.730000e+02 3.987565e+01
	endloop
endfacet

facet normal 6.304443e-01 7.762345e-01 0.000000e+00
	outer loop
		vertex 1.345000e+02 1.730000e+02 -4.470953e+01
		vertex 3.600000e+01 2.530000e+02 -3.600000e+01
		vertex 3.600000e+01 2.530000e+02 3.600000e+01
	endloop
endfacet

facet normal 6.304443e-01 7.762345e-01 0.000000e+00
	outer loop
		vertex 3.600000e+01 2.530000e+02 3.600000e+01
		vertex 1.345000e+02 1.730000e+02 3.987565e+01
		vertex 1.345000e+02 1.730000e+02 -4.470953e+01
	endloop
endfacet

facet normal -6.304443e-01 7.762345e-01 0.000000e+00
	outer loop
		vertex -1.345000e+02 1.730000e+02 3.987565e+01
		vertex -3.600000e+01 2.530000e+02 3.600000e+01
		vertex -3.600000e+01 2.530000e+02 -3.600000e+01
	endloop
endfacet

facet normal -6.304443e-01 7.762345e-01 0.000000e+00
	outer loop
		vertex -3.600000e+01 2.530000e+02 -3.600000e+01
		vertex -1.345000e+02 1.730000e+02 -4.470953e+01
		vertex -1.345000e+02 1.730000e+02 3.987565e+01
	endloop
endfacet

facet normal 0.000000e+00 1.000000e+00 0.000000e+00
	outer loop
		vertex 3.600000e+01 2.530000e+02 -3.600000e+01
		vertex -3.600000e+01 2.530000e+02 -3.600000e+01
		vertex -3.600000e+01 2.530000e+02 3.600000e+01
	endloop
endfacet

facet normal 0.000000e+00 1.000000e+00 0.000000e+00
	outer loop
		vertex -3.600000e+01 2.530000e+02 3.600000e+01
		vertex 3.600000e+01 2.530000e+02 3.600000e+01
		vertex 3.600000e+01 2.530000e+02 -3.600000e+01
	endloop
endfacet

endsolid 6Ring_LG_OuterSolid
